<svg xmlns="http://www.w3.org/2000/svg" width="12" height="13" viewBox="0 0 12 13" fill="none"><g clip-path="url(#a)" fill="#fff"><path d="M7.804 12.691a.559.559 0 0 1-.396-.955l3.374-3.373a.345.345 0 0 0 0-.487L7.408 4.503A.559.559 0 1 1 8.2 3.71l3.373 3.374c.57.57.57 1.497 0 2.067L8.2 12.526a.56.56 0 0 1-.396.163z"/><path d="M11.2 8.68H.8c-.442 0-.8-.25-.8-.558s.358-.56.8-.56h10.398c.442 0 .8.251.8.56 0 .308-.358.559-.8.559z"/><path d="M0 8.122V.868a.56.56 0 0 1 1.118 0v7.254a.56.56 0 0 1-1.118 0"/></g></svg>