<svg xmlns="http://www.w3.org/2000/svg" width="18" height="14" viewBox="0 0 18 14" fill="none">
  <path d="M16.6877 14.0088H1.31229C0.589278 14.0088 0 13.4195 0 12.6965V1.31228C0 0.589272 0.589278 0 1.31229 0H16.6877C17.4107 0 18 0.589272 18 1.31228V12.6965C18 13.4195 17.4107 14.0088 16.6877 14.0088ZM1.31229 1.04481C1.16392 1.04481 1.04481 1.16392 1.04481 1.31228V12.6965C1.04481 12.8449 1.16392 12.964 1.31229 12.964H16.6877C16.8361 12.964 16.9552 12.8449 16.9552 12.6965V1.31228C16.9552 1.16392 16.8361 1.04481 16.6877 1.04481H1.31229Z" fill="#171F50"/>
  <path d="M8.99987 7.76299C8.45448 7.76299 7.90907 7.57075 7.46607 7.18626L0.766793 1.41055C0.547383 1.22249 0.524395 0.892329 0.71246 0.672919C0.900526 0.453509 1.23069 0.430524 1.4501 0.618589L8.15147 6.39429C8.64253 6.82058 9.35721 6.82267 9.85036 6.39847L16.5601 0.622768C16.7795 0.434703 17.1097 0.459778 17.2977 0.677099C17.4858 0.896508 17.4607 1.22458 17.2434 1.41473L10.5337 7.19044C10.0907 7.57075 9.54735 7.7609 9.00614 7.7609L8.99987 7.76299Z" fill="#171F50"/>
</svg>