<svg xmlns="http://www.w3.org/2000/svg" width="16" height="12" viewBox="0 0 16 12" fill="none">
  <g clip-path="url(#clip0_21_1533)">
    <path d="M7.99892 8.76298C6.32373 8.76298 4.95898 7.40025 4.95898 5.72304C4.95898 4.04584 6.32172 2.68311 7.99892 2.68311C9.67613 2.68311 11.0389 4.04584 11.0389 5.72304C11.0389 7.40025 9.67613 8.76298 7.99892 8.76298ZM7.99892 3.69104C6.8781 3.69104 5.96692 4.60222 5.96692 5.72304C5.96692 6.84387 6.8781 7.75505 7.99892 7.75505C9.11975 7.75505 10.0309 6.84387 10.0309 5.72304C10.0309 4.60222 9.11975 3.69104 7.99892 3.69104Z" fill="#171F50"/>
    <path d="M7.99901 11.4482C4.98326 11.4482 2.16708 9.50687 0.0705713 5.9811C-0.0241748 5.82185 -0.0241748 5.62429 0.0705713 5.46504C2.16708 1.94129 4.98326 0 7.99901 0C11.0148 0 13.8309 1.94129 15.9274 5.46504C16.0222 5.62429 16.0222 5.82185 15.9274 5.9811C13.8309 9.50485 11.0148 11.4482 7.99901 11.4482ZM1.09262 5.72307C2.97948 8.76704 5.42474 10.4382 7.99901 10.4382C10.5733 10.4382 13.0185 8.76704 14.9054 5.72307C13.0185 2.6791 10.5733 1.00794 7.99901 1.00794C5.42474 1.00794 2.98149 2.6791 1.09262 5.72307Z" fill="#171F50"/>
  </g>
  <defs>
    <clipPath id="clip0_21_1533">
      <rect width="16" height="11.4482" fill="white"/>
    </clipPath>
  </defs>
</svg>