<svg xmlns="http://www.w3.org/2000/svg" width="16" height="17" viewBox="0 0 16 17" fill="none">
  <path d="M13.991 16.9725H2.00896C0.900832 16.9725 0 16.0717 0 14.9635V6.66154C0 5.55341 0.900832 4.65259 2.00896 4.65259H13.991C15.0992 4.65259 16 5.55341 16 6.66154V14.9635C16 16.0717 15.0992 16.9725 13.991 16.9725ZM2.00896 5.93218C1.60717 5.93218 1.27959 6.25975 1.27959 6.66154V14.9635C1.27959 15.3653 1.60717 15.6929 2.00896 15.6929H13.991C14.3928 15.6929 14.7204 15.3653 14.7204 14.9635V6.66154C14.7204 6.25975 14.3928 5.93218 13.991 5.93218H2.00896Z" fill="#171F50"/>
  <path d="M12.6525 5.93219H3.34731C2.99415 5.93219 2.70752 5.64556 2.70752 5.29239V2.659C2.70752 1.19258 3.9001 0 5.36651 0H10.6359C12.1023 0 13.2949 1.19258 13.2949 2.659V5.29239C13.2949 5.64556 13.0082 5.93219 12.6551 5.93219H12.6525ZM3.98711 4.6526H12.0127V2.659C12.0127 1.89892 11.3934 1.27959 10.6333 1.27959H5.36395C4.60387 1.27959 3.98455 1.89892 3.98455 2.659V4.6526H3.98711Z" fill="#171F50"/>
  <path d="M8.00015 12.7677C7.64698 12.7677 7.36035 12.4811 7.36035 12.1279V9.49966C7.36035 9.14649 7.64698 8.85986 8.00015 8.85986C8.35331 8.85986 8.63994 9.14649 8.63994 9.49966V12.1279C8.63994 12.4811 8.35331 12.7677 8.00015 12.7677Z" fill="#171F50"/>
</svg>