<svg xmlns="http://www.w3.org/2000/svg" width="12" height="16" viewBox="0 0 12 16" fill="none">
  <g clip-path="url(#clip0_21_1540)">
    <path d="M10.4883 15.9679H1.51189C1.05364 15.9679 0.625378 15.7623 0.336299 15.4047C0.0450787 15.0407 -0.0662703 14.5696 0.0365134 14.1113C0.648933 11.3383 3.15643 9.32548 6.00011 9.32548C8.84379 9.32548 11.3513 11.3383 11.9637 14.1113C12.0644 14.5696 11.9551 15.0407 11.6639 15.4047C11.377 15.7623 10.9487 15.9679 10.4883 15.9679ZM6.00011 10.3961C3.65536 10.3961 1.58683 12.0557 1.08148 14.3426C1.0515 14.4818 1.08148 14.6253 1.17142 14.7345C1.22067 14.7944 1.32988 14.8972 1.51189 14.8972H10.4883C10.6703 14.8972 10.7796 14.7944 10.8288 14.7345C10.9166 14.6253 10.9487 14.4818 10.9187 14.3426C10.4134 12.0557 8.34486 10.3961 6.00011 10.3961Z" fill="white"/>
    <path d="M5.99991 7.87366C3.82861 7.87366 2.06201 6.10707 2.06201 3.93576C2.06201 1.76445 3.82861 0 5.99991 0C8.17122 0 9.93781 1.7666 9.93781 3.9379C9.93781 6.10921 8.17122 7.8758 5.99991 7.8758V7.87366ZM5.99991 1.07066C4.41961 1.07066 3.13268 2.35546 3.13268 3.9379C3.13268 5.52034 4.41747 6.80514 5.99991 6.80514C7.58235 6.80514 8.86715 5.52034 8.86715 3.9379C8.86715 2.35546 7.58235 1.07066 5.99991 1.07066Z" fill="white"/>
  </g>
  <defs>
    <clipPath id="clip0_21_1540">
      <rect width="12" height="15.9679" fill="white"/>
    </clipPath>
  </defs>
</svg>